<mxfile host="app.diagrams.net" modified="2021-04-24T03:43:44.825Z" agent="5.0 (Windows NT 10.0; Win64; x64) AppleWebKit/537.36 (KHTML, like Gecko) Chrome/90.0.4430.85 Safari/537.36" etag="_zE6jWMTIhX4NAzeCZeR" version="14.6.6" type="github">
  <diagram id="R2lEEEUBdFMjLlhIrx00" name="Page-1">
    <mxGraphModel dx="2297" dy="1903" grid="1" gridSize="10" guides="1" tooltips="1" connect="1" arrows="1" fold="1" page="1" pageScale="1" pageWidth="850" pageHeight="1100" math="0" shadow="0" extFonts="Permanent Marker^https://fonts.googleapis.com/css?family=Permanent+Marker">
      <root>
        <mxCell id="0" />
        <mxCell id="1" parent="0" />
        <mxCell id="Hnz1IxxwzGG9viHPexm9-60" style="edgeStyle=orthogonalEdgeStyle;rounded=0;orthogonalLoop=1;jettySize=auto;html=1;entryX=1;entryY=0.5;entryDx=0;entryDy=0;fontSize=14;fontColor=#FFFFFF;" edge="1" parent="1" source="5C_oUwb4QONhgdHHlV8W-3" target="Hnz1IxxwzGG9viHPexm9-58">
          <mxGeometry relative="1" as="geometry">
            <Array as="points">
              <mxPoint x="360" y="180" />
              <mxPoint x="220" y="180" />
            </Array>
          </mxGeometry>
        </mxCell>
        <mxCell id="5C_oUwb4QONhgdHHlV8W-3" value="&lt;font style=&quot;font-size: 15px&quot;&gt;Restaurant&amp;nbsp;&lt;/font&gt;" style="rounded=0;whiteSpace=wrap;html=1;fillColor=#f5f5f5;strokeColor=#666666;fontColor=#333333;fontSize=14;" parent="1" vertex="1">
          <mxGeometry x="330" y="220" width="120" height="60" as="geometry" />
        </mxCell>
        <mxCell id="Hnz1IxxwzGG9viHPexm9-49" style="edgeStyle=orthogonalEdgeStyle;rounded=0;orthogonalLoop=1;jettySize=auto;html=1;entryX=0.5;entryY=1;entryDx=0;entryDy=0;fontColor=#FFFFFF;" edge="1" parent="1" source="5C_oUwb4QONhgdHHlV8W-5" target="Hnz1IxxwzGG9viHPexm9-46">
          <mxGeometry relative="1" as="geometry" />
        </mxCell>
        <mxCell id="Hnz1IxxwzGG9viHPexm9-63" style="edgeStyle=orthogonalEdgeStyle;rounded=0;orthogonalLoop=1;jettySize=auto;html=1;entryX=0;entryY=0.5;entryDx=0;entryDy=0;fontSize=14;fontColor=#000000;" edge="1" parent="1" source="5C_oUwb4QONhgdHHlV8W-5" target="Hnz1IxxwzGG9viHPexm9-62">
          <mxGeometry relative="1" as="geometry" />
        </mxCell>
        <mxCell id="5C_oUwb4QONhgdHHlV8W-5" value="&lt;font style=&quot;font-size: 15px&quot;&gt;Employee&lt;/font&gt;" style="rounded=0;whiteSpace=wrap;html=1;fillColor=#f5f5f5;strokeColor=#666666;fontColor=#333333;fontSize=14;" parent="1" vertex="1">
          <mxGeometry x="-20" y="290" width="120" height="60" as="geometry" />
        </mxCell>
        <mxCell id="Hnz1IxxwzGG9viHPexm9-79" style="edgeStyle=orthogonalEdgeStyle;rounded=0;orthogonalLoop=1;jettySize=auto;html=1;entryX=0.5;entryY=0;entryDx=0;entryDy=0;fontSize=12;fontColor=#000000;" edge="1" parent="1" source="5C_oUwb4QONhgdHHlV8W-6" target="Hnz1IxxwzGG9viHPexm9-76">
          <mxGeometry relative="1" as="geometry" />
        </mxCell>
        <mxCell id="Hnz1IxxwzGG9viHPexm9-93" style="edgeStyle=orthogonalEdgeStyle;rounded=0;orthogonalLoop=1;jettySize=auto;html=1;entryX=0.5;entryY=0;entryDx=0;entryDy=0;fontSize=14;fontColor=#000000;" edge="1" parent="1" source="5C_oUwb4QONhgdHHlV8W-6" target="Hnz1IxxwzGG9viHPexm9-91">
          <mxGeometry relative="1" as="geometry">
            <Array as="points">
              <mxPoint x="660" y="450" />
              <mxPoint x="450" y="450" />
            </Array>
          </mxGeometry>
        </mxCell>
        <mxCell id="5C_oUwb4QONhgdHHlV8W-6" value="&lt;font style=&quot;font-size: 15px&quot;&gt;Client&lt;/font&gt;" style="rounded=0;whiteSpace=wrap;html=1;fillColor=#f5f5f5;strokeColor=#666666;fontColor=#333333;fontSize=14;" parent="1" vertex="1">
          <mxGeometry x="630" y="290" width="120" height="60" as="geometry" />
        </mxCell>
        <mxCell id="5C_oUwb4QONhgdHHlV8W-8" value="&lt;font style=&quot;font-size: 15px&quot;&gt;Table&amp;nbsp;&lt;/font&gt;" style="rounded=0;whiteSpace=wrap;html=1;fillColor=#f5f5f5;strokeColor=#666666;fontColor=#333333;fontSize=14;" parent="1" vertex="1">
          <mxGeometry x="640" y="630" width="100" height="50" as="geometry" />
        </mxCell>
        <mxCell id="5C_oUwb4QONhgdHHlV8W-10" style="edgeStyle=orthogonalEdgeStyle;rounded=0;orthogonalLoop=1;jettySize=auto;html=1;exitX=0.5;exitY=1;exitDx=0;exitDy=0;entryX=0.5;entryY=0;entryDx=0;entryDy=0;startArrow=none;" parent="1" source="5C_oUwb4QONhgdHHlV8W-11" target="5C_oUwb4QONhgdHHlV8W-3" edge="1">
          <mxGeometry relative="1" as="geometry" />
        </mxCell>
        <mxCell id="Hnz1IxxwzGG9viHPexm9-47" style="edgeStyle=orthogonalEdgeStyle;rounded=0;orthogonalLoop=1;jettySize=auto;html=1;entryX=1;entryY=0.5;entryDx=0;entryDy=0;fontColor=#FFFFFF;" edge="1" parent="1" source="5C_oUwb4QONhgdHHlV8W-9" target="Hnz1IxxwzGG9viHPexm9-46">
          <mxGeometry relative="1" as="geometry" />
        </mxCell>
        <mxCell id="5C_oUwb4QONhgdHHlV8W-9" value="&lt;font style=&quot;font-size: 15px&quot;&gt;System&lt;/font&gt;" style="rounded=0;whiteSpace=wrap;html=1;fillColor=#f5f5f5;strokeColor=#666666;fontColor=#333333;fontSize=14;" parent="1" vertex="1">
          <mxGeometry x="330" width="120" height="60" as="geometry" />
        </mxCell>
        <mxCell id="Hnz1IxxwzGG9viHPexm9-40" style="edgeStyle=orthogonalEdgeStyle;rounded=0;orthogonalLoop=1;jettySize=auto;html=1;entryX=0.5;entryY=0;entryDx=0;entryDy=0;fontColor=#FFFFFF;" edge="1" parent="1" source="5C_oUwb4QONhgdHHlV8W-11" target="5C_oUwb4QONhgdHHlV8W-6">
          <mxGeometry relative="1" as="geometry" />
        </mxCell>
        <mxCell id="5C_oUwb4QONhgdHHlV8W-11" value="serve" style="rhombus;whiteSpace=wrap;html=1;fillColor=#ffff88;strokeColor=#36393d;fontColor=#000000;fontSize=14;" parent="1" vertex="1">
          <mxGeometry x="350" y="100" width="80" height="80" as="geometry" />
        </mxCell>
        <mxCell id="5C_oUwb4QONhgdHHlV8W-12" value="" style="edgeStyle=orthogonalEdgeStyle;rounded=0;orthogonalLoop=1;jettySize=auto;html=1;exitX=0.5;exitY=1;exitDx=0;exitDy=0;entryX=0.5;entryY=0;entryDx=0;entryDy=0;endArrow=none;" parent="1" source="5C_oUwb4QONhgdHHlV8W-9" target="5C_oUwb4QONhgdHHlV8W-11" edge="1">
          <mxGeometry relative="1" as="geometry">
            <mxPoint x="390" y="60" as="sourcePoint" />
            <mxPoint x="390" y="120" as="targetPoint" />
          </mxGeometry>
        </mxCell>
        <mxCell id="Hnz1IxxwzGG9viHPexm9-45" style="edgeStyle=orthogonalEdgeStyle;rounded=0;orthogonalLoop=1;jettySize=auto;html=1;entryX=1;entryY=0.5;entryDx=0;entryDy=0;fontColor=#FFFFFF;" edge="1" parent="1" source="Hnz1IxxwzGG9viHPexm9-2" target="5C_oUwb4QONhgdHHlV8W-9">
          <mxGeometry relative="1" as="geometry" />
        </mxCell>
        <mxCell id="Hnz1IxxwzGG9viHPexm9-2" value="&lt;u&gt;&lt;font style=&quot;font-size: 13px&quot;&gt;System_name&lt;/font&gt;&lt;/u&gt;" style="rounded=1;whiteSpace=wrap;html=1;fontColor=#ffffff;strokeColor=#FF3333;fillColor=#FF3333;" vertex="1" parent="1">
          <mxGeometry x="510" y="10" width="100" height="40" as="geometry" />
        </mxCell>
        <mxCell id="Hnz1IxxwzGG9viHPexm9-7" style="edgeStyle=orthogonalEdgeStyle;rounded=0;orthogonalLoop=1;jettySize=auto;html=1;entryX=0;entryY=0.5;entryDx=0;entryDy=0;fontColor=#000000;" edge="1" parent="1" source="Hnz1IxxwzGG9viHPexm9-5" target="5C_oUwb4QONhgdHHlV8W-3">
          <mxGeometry relative="1" as="geometry" />
        </mxCell>
        <mxCell id="Hnz1IxxwzGG9viHPexm9-5" value="&lt;u&gt;&lt;font style=&quot;font-size: 13px&quot;&gt;Restaurant_name&lt;/font&gt;&lt;/u&gt;" style="rounded=1;whiteSpace=wrap;html=1;fillColor=#FF3333;fontColor=#FFFFFF;strokeWidth=1;strokeColor=#FF3333;" vertex="1" parent="1">
          <mxGeometry x="170" y="225" width="110" height="50" as="geometry" />
        </mxCell>
        <mxCell id="Hnz1IxxwzGG9viHPexm9-10" style="edgeStyle=orthogonalEdgeStyle;rounded=0;orthogonalLoop=1;jettySize=auto;html=1;entryX=1;entryY=0.5;entryDx=0;entryDy=0;fontColor=#FFFFFF;" edge="1" parent="1" source="Hnz1IxxwzGG9viHPexm9-8" target="5C_oUwb4QONhgdHHlV8W-3">
          <mxGeometry relative="1" as="geometry" />
        </mxCell>
        <mxCell id="Hnz1IxxwzGG9viHPexm9-8" value="no_of_employees" style="rounded=1;whiteSpace=wrap;html=1;fontColor=#ffffff;strokeWidth=1;fillColor=#0050ef;dashed=1;strokeColor=#FFFFFF;" vertex="1" parent="1">
          <mxGeometry x="500" y="230" width="110" height="40" as="geometry" />
        </mxCell>
        <mxCell id="Hnz1IxxwzGG9viHPexm9-30" style="edgeStyle=orthogonalEdgeStyle;rounded=0;orthogonalLoop=1;jettySize=auto;html=1;entryX=0;entryY=0.5;entryDx=0;entryDy=0;fontColor=#FFFFFF;" edge="1" parent="1" source="Hnz1IxxwzGG9viHPexm9-16" target="5C_oUwb4QONhgdHHlV8W-5">
          <mxGeometry relative="1" as="geometry" />
        </mxCell>
        <mxCell id="Hnz1IxxwzGG9viHPexm9-72" style="edgeStyle=orthogonalEdgeStyle;rounded=0;orthogonalLoop=1;jettySize=auto;html=1;entryX=1;entryY=0.5;entryDx=0;entryDy=0;fontSize=12;fontColor=#000000;" edge="1" parent="1" source="Hnz1IxxwzGG9viHPexm9-16" target="Hnz1IxxwzGG9viHPexm9-71">
          <mxGeometry relative="1" as="geometry" />
        </mxCell>
        <mxCell id="Hnz1IxxwzGG9viHPexm9-75" style="edgeStyle=orthogonalEdgeStyle;rounded=0;orthogonalLoop=1;jettySize=auto;html=1;entryX=1;entryY=0.5;entryDx=0;entryDy=0;fontSize=12;fontColor=#000000;" edge="1" parent="1" source="Hnz1IxxwzGG9viHPexm9-16" target="Hnz1IxxwzGG9viHPexm9-73">
          <mxGeometry relative="1" as="geometry" />
        </mxCell>
        <mxCell id="Hnz1IxxwzGG9viHPexm9-16" value="Employee_name" style="rounded=1;whiteSpace=wrap;html=1;fontColor=#ffffff;strokeColor=#001DBC;strokeWidth=1;fillColor=#0050ef;" vertex="1" parent="1">
          <mxGeometry x="-180" y="260" width="100" height="50" as="geometry" />
        </mxCell>
        <mxCell id="Hnz1IxxwzGG9viHPexm9-26" style="edgeStyle=orthogonalEdgeStyle;rounded=0;orthogonalLoop=1;jettySize=auto;html=1;entryX=0.25;entryY=0;entryDx=0;entryDy=0;fontColor=#FFFFFF;" edge="1" parent="1" source="Hnz1IxxwzGG9viHPexm9-18" target="5C_oUwb4QONhgdHHlV8W-5">
          <mxGeometry relative="1" as="geometry" />
        </mxCell>
        <mxCell id="Hnz1IxxwzGG9viHPexm9-18" value="&lt;u&gt;&lt;font style=&quot;font-size: 13px&quot;&gt;Employee_email&lt;/font&gt;&lt;/u&gt;" style="rounded=1;whiteSpace=wrap;html=1;dashed=1;fontColor=#FFFFFF;strokeColor=#FFFFFF;strokeWidth=1;fillColor=#FF3333;" vertex="1" parent="1">
          <mxGeometry x="-90" y="165" width="110" height="50" as="geometry" />
        </mxCell>
        <mxCell id="Hnz1IxxwzGG9viHPexm9-22" style="edgeStyle=orthogonalEdgeStyle;rounded=0;orthogonalLoop=1;jettySize=auto;html=1;entryX=0.167;entryY=1;entryDx=0;entryDy=0;entryPerimeter=0;fontColor=#FFFFFF;" edge="1" parent="1" source="Hnz1IxxwzGG9viHPexm9-21" target="5C_oUwb4QONhgdHHlV8W-5">
          <mxGeometry relative="1" as="geometry" />
        </mxCell>
        <mxCell id="Hnz1IxxwzGG9viHPexm9-21" value="&lt;font style=&quot;font-size: 14px&quot;&gt;Position&lt;/font&gt;" style="rounded=1;whiteSpace=wrap;html=1;fontColor=#ffffff;strokeColor=#001DBC;strokeWidth=1;fillColor=#0050ef;" vertex="1" parent="1">
          <mxGeometry x="-160" y="355" width="80" height="30" as="geometry" />
        </mxCell>
        <mxCell id="Hnz1IxxwzGG9viHPexm9-25" style="edgeStyle=orthogonalEdgeStyle;rounded=0;orthogonalLoop=1;jettySize=auto;html=1;entryX=0.5;entryY=1;entryDx=0;entryDy=0;fontColor=#FFFFFF;" edge="1" parent="1" source="Hnz1IxxwzGG9viHPexm9-23" target="5C_oUwb4QONhgdHHlV8W-5">
          <mxGeometry relative="1" as="geometry" />
        </mxCell>
        <mxCell id="Hnz1IxxwzGG9viHPexm9-23" value="&lt;font style=&quot;font-size: 14px&quot;&gt;Gender&lt;/font&gt;" style="rounded=1;whiteSpace=wrap;html=1;fontColor=#ffffff;strokeColor=#001DBC;strokeWidth=1;fillColor=#0050ef;" vertex="1" parent="1">
          <mxGeometry x="-140" y="410" width="70" height="30" as="geometry" />
        </mxCell>
        <mxCell id="Hnz1IxxwzGG9viHPexm9-37" style="edgeStyle=orthogonalEdgeStyle;rounded=0;orthogonalLoop=1;jettySize=auto;html=1;entryX=1;entryY=0.5;entryDx=0;entryDy=0;fontColor=#FFFFFF;" edge="1" parent="1" source="Hnz1IxxwzGG9viHPexm9-31" target="5C_oUwb4QONhgdHHlV8W-6">
          <mxGeometry relative="1" as="geometry" />
        </mxCell>
        <mxCell id="Hnz1IxxwzGG9viHPexm9-31" value="&lt;u&gt;&lt;font style=&quot;font-size: 14px&quot;&gt;Client_ID&lt;/font&gt;&lt;/u&gt;" style="rounded=1;whiteSpace=wrap;html=1;fontColor=#FFFFFF;strokeWidth=1;fillColor=#FF3333;strokeColor=#FF3333;" vertex="1" parent="1">
          <mxGeometry x="730" y="380" width="90" height="40" as="geometry" />
        </mxCell>
        <mxCell id="Hnz1IxxwzGG9viHPexm9-36" style="edgeStyle=orthogonalEdgeStyle;rounded=0;orthogonalLoop=1;jettySize=auto;html=1;entryX=0.867;entryY=1.033;entryDx=0;entryDy=0;entryPerimeter=0;fontColor=#FFFFFF;" edge="1" parent="1" source="Hnz1IxxwzGG9viHPexm9-32" target="5C_oUwb4QONhgdHHlV8W-5">
          <mxGeometry relative="1" as="geometry" />
        </mxCell>
        <mxCell id="Hnz1IxxwzGG9viHPexm9-32" value="Salary" style="rounded=1;whiteSpace=wrap;html=1;fontColor=#ffffff;strokeWidth=1;fillColor=#0050ef;dashed=1;strokeColor=#FFFFFF;" vertex="1" parent="1">
          <mxGeometry x="-50" y="460" width="70" height="30" as="geometry" />
        </mxCell>
        <mxCell id="Hnz1IxxwzGG9viHPexm9-67" style="edgeStyle=orthogonalEdgeStyle;rounded=0;orthogonalLoop=1;jettySize=auto;html=1;entryX=1;entryY=0.25;entryDx=0;entryDy=0;fontSize=14;fontColor=#000000;" edge="1" parent="1" source="Hnz1IxxwzGG9viHPexm9-43" target="5C_oUwb4QONhgdHHlV8W-6">
          <mxGeometry relative="1" as="geometry" />
        </mxCell>
        <mxCell id="Hnz1IxxwzGG9viHPexm9-43" value="Client_name" style="rounded=1;whiteSpace=wrap;html=1;fontColor=#ffffff;strokeColor=#001DBC;strokeWidth=1;fillColor=#0050ef;" vertex="1" parent="1">
          <mxGeometry x="740" y="230" width="90" height="40" as="geometry" />
        </mxCell>
        <mxCell id="Hnz1IxxwzGG9viHPexm9-46" value="use" style="rhombus;whiteSpace=wrap;html=1;strokeColor=#36393d;strokeWidth=1;fillColor=#ffff88;fontColor=#000000;fontSize=14;" vertex="1" parent="1">
          <mxGeometry y="-10" width="80" height="80" as="geometry" />
        </mxCell>
        <mxCell id="Hnz1IxxwzGG9viHPexm9-51" value="M" style="text;html=1;strokeColor=none;fillColor=none;align=center;verticalAlign=middle;whiteSpace=wrap;rounded=0;fontSize=14;" vertex="1" parent="1">
          <mxGeometry x="410" y="190" width="40" height="20" as="geometry" />
        </mxCell>
        <mxCell id="Hnz1IxxwzGG9viHPexm9-61" style="edgeStyle=orthogonalEdgeStyle;rounded=0;orthogonalLoop=1;jettySize=auto;html=1;entryX=0.845;entryY=0.017;entryDx=0;entryDy=0;entryPerimeter=0;fontSize=14;fontColor=#FFFFFF;" edge="1" parent="1" source="Hnz1IxxwzGG9viHPexm9-58" target="5C_oUwb4QONhgdHHlV8W-5">
          <mxGeometry relative="1" as="geometry" />
        </mxCell>
        <mxCell id="Hnz1IxxwzGG9viHPexm9-58" value="work" style="rhombus;whiteSpace=wrap;html=1;fontSize=14;strokeWidth=1;fillColor=#ffff88;strokeColor=#36393D;fontColor=#000000;" vertex="1" parent="1">
          <mxGeometry x="140" y="100" width="80" height="80" as="geometry" />
        </mxCell>
        <mxCell id="Hnz1IxxwzGG9viHPexm9-64" style="edgeStyle=orthogonalEdgeStyle;rounded=0;orthogonalLoop=1;jettySize=auto;html=1;entryX=0;entryY=0.5;entryDx=0;entryDy=0;fontSize=14;fontColor=#000000;" edge="1" parent="1" source="Hnz1IxxwzGG9viHPexm9-62" target="5C_oUwb4QONhgdHHlV8W-6">
          <mxGeometry relative="1" as="geometry" />
        </mxCell>
        <mxCell id="Hnz1IxxwzGG9viHPexm9-110" style="edgeStyle=orthogonalEdgeStyle;rounded=0;orthogonalLoop=1;jettySize=auto;html=1;entryX=0.5;entryY=0;entryDx=0;entryDy=0;fontSize=14;fontColor=#000000;" edge="1" parent="1" source="Hnz1IxxwzGG9viHPexm9-62" target="Hnz1IxxwzGG9viHPexm9-82">
          <mxGeometry relative="1" as="geometry" />
        </mxCell>
        <mxCell id="Hnz1IxxwzGG9viHPexm9-62" value="Handle" style="rhombus;whiteSpace=wrap;html=1;fontSize=14;strokeColor=#36393d;strokeWidth=1;fillColor=#ffff88;fontColor=#000000;" vertex="1" parent="1">
          <mxGeometry x="290" y="340" width="80" height="80" as="geometry" />
        </mxCell>
        <mxCell id="Hnz1IxxwzGG9viHPexm9-71" value="&lt;font style=&quot;font-size: 14px&quot;&gt;FName&lt;/font&gt;" style="rounded=1;whiteSpace=wrap;html=1;fontSize=12;fontColor=#ffffff;strokeColor=#001DBC;strokeWidth=1;fillColor=#0050ef;" vertex="1" parent="1">
          <mxGeometry x="-230" y="220" width="70" height="30" as="geometry" />
        </mxCell>
        <mxCell id="Hnz1IxxwzGG9viHPexm9-73" value="&lt;font style=&quot;font-size: 14px&quot;&gt;LName&lt;/font&gt;" style="rounded=1;whiteSpace=wrap;html=1;fontSize=12;fontColor=#ffffff;strokeColor=#001DBC;strokeWidth=1;fillColor=#0050ef;" vertex="1" parent="1">
          <mxGeometry x="-230" y="320" width="70" height="30" as="geometry" />
        </mxCell>
        <mxCell id="Hnz1IxxwzGG9viHPexm9-81" style="edgeStyle=orthogonalEdgeStyle;rounded=0;orthogonalLoop=1;jettySize=auto;html=1;entryX=0.5;entryY=0;entryDx=0;entryDy=0;fontSize=12;fontColor=#000000;" edge="1" parent="1" source="Hnz1IxxwzGG9viHPexm9-76" target="5C_oUwb4QONhgdHHlV8W-8">
          <mxGeometry relative="1" as="geometry" />
        </mxCell>
        <mxCell id="Hnz1IxxwzGG9viHPexm9-76" value="Reserve" style="rhombus;whiteSpace=wrap;html=1;fontSize=14;strokeColor=#36393d;strokeWidth=1;fillColor=#ffff88;fontColor=#000000;" vertex="1" parent="1">
          <mxGeometry x="650" y="500" width="80" height="80" as="geometry" />
        </mxCell>
        <mxCell id="Hnz1IxxwzGG9viHPexm9-82" value="&lt;span style=&quot;font-size: 16px&quot;&gt;Order&lt;/span&gt;" style="whiteSpace=wrap;html=1;rounded=0;fontSize=14;fontColor=#333333;fillColor=#f5f5f5;strokeColor=none;perimeterSpacing=2;shadow=0;sketch=0;glass=0;" vertex="1" parent="1">
          <mxGeometry x="215" y="517.5" width="110" height="45" as="geometry" />
        </mxCell>
        <mxCell id="Hnz1IxxwzGG9viHPexm9-94" style="edgeStyle=orthogonalEdgeStyle;rounded=0;orthogonalLoop=1;jettySize=auto;html=1;entryX=1;entryY=0.5;entryDx=0;entryDy=0;fontSize=14;fontColor=#000000;" edge="1" parent="1" source="Hnz1IxxwzGG9viHPexm9-91">
          <mxGeometry relative="1" as="geometry">
            <mxPoint x="330" y="540" as="targetPoint" />
          </mxGeometry>
        </mxCell>
        <mxCell id="Hnz1IxxwzGG9viHPexm9-91" value="&lt;font color=&quot;#000000&quot;&gt;Make&lt;/font&gt;" style="rhombus;whiteSpace=wrap;html=1;shadow=0;glass=0;sketch=0;fontSize=14;strokeColor=#36393d;strokeWidth=1;fillColor=#ffff88;" vertex="1" parent="1">
          <mxGeometry x="410" y="500" width="80" height="80" as="geometry" />
        </mxCell>
        <mxCell id="Hnz1IxxwzGG9viHPexm9-95" value="" style="rounded=0;whiteSpace=wrap;html=1;shadow=0;glass=0;sketch=0;fontSize=14;strokeWidth=1;fillColor=none;" vertex="1" parent="1">
          <mxGeometry x="630" y="625" width="120" height="60" as="geometry" />
        </mxCell>
        <mxCell id="Hnz1IxxwzGG9viHPexm9-100" value="" style="edgeStyle=orthogonalEdgeStyle;rounded=0;orthogonalLoop=1;jettySize=auto;html=1;fontSize=14;fontColor=#000000;" edge="1" parent="1" source="Hnz1IxxwzGG9viHPexm9-96" target="Hnz1IxxwzGG9viHPexm9-95">
          <mxGeometry relative="1" as="geometry" />
        </mxCell>
        <mxCell id="Hnz1IxxwzGG9viHPexm9-96" value="No_of_custumers" style="rounded=1;whiteSpace=wrap;html=1;shadow=0;glass=0;sketch=0;fontSize=14;fontColor=#ffffff;strokeColor=#001DBC;strokeWidth=1;fillColor=#0050ef;" vertex="1" parent="1">
          <mxGeometry x="630" y="730" width="120" height="50" as="geometry" />
        </mxCell>
        <mxCell id="Hnz1IxxwzGG9viHPexm9-99" value="" style="edgeStyle=orthogonalEdgeStyle;rounded=0;orthogonalLoop=1;jettySize=auto;html=1;fontSize=14;fontColor=#000000;" edge="1" parent="1" source="Hnz1IxxwzGG9viHPexm9-98" target="Hnz1IxxwzGG9viHPexm9-95">
          <mxGeometry relative="1" as="geometry" />
        </mxCell>
        <mxCell id="Hnz1IxxwzGG9viHPexm9-98" value="&lt;u&gt;Table_no&lt;/u&gt;" style="rounded=1;whiteSpace=wrap;html=1;shadow=0;glass=0;sketch=0;fontSize=14;fontColor=#ffffff;strokeWidth=1;fillColor=#FF3333;strokeColor=#FF3333;" vertex="1" parent="1">
          <mxGeometry x="490" y="637.5" width="90" height="35" as="geometry" />
        </mxCell>
        <mxCell id="Hnz1IxxwzGG9viHPexm9-103" value="" style="edgeStyle=orthogonalEdgeStyle;rounded=0;orthogonalLoop=1;jettySize=auto;html=1;fontSize=14;fontColor=#000000;" edge="1" parent="1" source="Hnz1IxxwzGG9viHPexm9-101">
          <mxGeometry relative="1" as="geometry">
            <mxPoint x="270" y="570" as="targetPoint" />
          </mxGeometry>
        </mxCell>
        <mxCell id="Hnz1IxxwzGG9viHPexm9-101" value="Item_Price" style="rounded=1;whiteSpace=wrap;html=1;shadow=0;glass=0;sketch=0;fontSize=14;fontColor=#ffffff;strokeColor=#001DBC;strokeWidth=1;fillColor=#0050ef;" vertex="1" parent="1">
          <mxGeometry x="227.5" y="602.5" width="85" height="35" as="geometry" />
        </mxCell>
        <mxCell id="Hnz1IxxwzGG9viHPexm9-107" style="edgeStyle=orthogonalEdgeStyle;rounded=0;orthogonalLoop=1;jettySize=auto;html=1;entryX=0;entryY=0.5;entryDx=0;entryDy=0;fontSize=14;fontColor=#000000;" edge="1" parent="1" source="Hnz1IxxwzGG9viHPexm9-104">
          <mxGeometry relative="1" as="geometry">
            <mxPoint x="210" y="540" as="targetPoint" />
          </mxGeometry>
        </mxCell>
        <mxCell id="Hnz1IxxwzGG9viHPexm9-104" value="&lt;u&gt;Order_ID&lt;/u&gt;" style="rounded=1;whiteSpace=wrap;html=1;shadow=0;glass=0;sketch=0;fontSize=14;fontColor=#ffffff;strokeWidth=1;fillColor=#FF3333;strokeColor=#FF3333;" vertex="1" parent="1">
          <mxGeometry x="80" y="522.5" width="90" height="35" as="geometry" />
        </mxCell>
        <mxCell id="Hnz1IxxwzGG9viHPexm9-109" style="edgeStyle=orthogonalEdgeStyle;rounded=0;orthogonalLoop=1;jettySize=auto;html=1;entryX=1;entryY=0.75;entryDx=0;entryDy=0;fontSize=14;fontColor=#000000;" edge="1" parent="1" source="Hnz1IxxwzGG9viHPexm9-108" target="5C_oUwb4QONhgdHHlV8W-5">
          <mxGeometry relative="1" as="geometry">
            <Array as="points">
              <mxPoint x="120" y="448" />
              <mxPoint x="120" y="335" />
            </Array>
          </mxGeometry>
        </mxCell>
        <mxCell id="Hnz1IxxwzGG9viHPexm9-108" value="Age" style="rounded=1;whiteSpace=wrap;html=1;shadow=0;glass=0;sketch=0;fontSize=14;fontColor=#ffffff;strokeWidth=1;fillColor=#0050ef;dashed=1;strokeColor=#FFFFFF;" vertex="1" parent="1">
          <mxGeometry x="50" y="435" width="40" height="25" as="geometry" />
        </mxCell>
        <mxCell id="Hnz1IxxwzGG9viHPexm9-113" style="edgeStyle=orthogonalEdgeStyle;rounded=0;orthogonalLoop=1;jettySize=auto;html=1;entryX=0;entryY=1;entryDx=0;entryDy=0;fontSize=14;fontColor=#000000;" edge="1" parent="1" source="Hnz1IxxwzGG9viHPexm9-111" target="Hnz1IxxwzGG9viHPexm9-95">
          <mxGeometry relative="1" as="geometry">
            <Array as="points">
              <mxPoint x="630" y="720" />
            </Array>
          </mxGeometry>
        </mxCell>
        <mxCell id="Hnz1IxxwzGG9viHPexm9-111" value="Date&amp;nbsp;" style="rounded=1;whiteSpace=wrap;html=1;shadow=0;glass=0;sketch=0;fontSize=14;fontColor=#ffffff;strokeColor=#001DBC;strokeWidth=1;fillColor=#0050ef;" vertex="1" parent="1">
          <mxGeometry x="530" y="720" width="70" height="30" as="geometry" />
        </mxCell>
        <mxCell id="Hnz1IxxwzGG9viHPexm9-115" style="edgeStyle=orthogonalEdgeStyle;rounded=0;orthogonalLoop=1;jettySize=auto;html=1;entryX=1;entryY=1;entryDx=0;entryDy=0;fontSize=14;fontColor=#000000;" edge="1" parent="1" source="Hnz1IxxwzGG9viHPexm9-112" target="Hnz1IxxwzGG9viHPexm9-95">
          <mxGeometry relative="1" as="geometry">
            <Array as="points">
              <mxPoint x="750" y="720" />
            </Array>
          </mxGeometry>
        </mxCell>
        <mxCell id="Hnz1IxxwzGG9viHPexm9-112" value="Time&amp;nbsp;" style="rounded=1;whiteSpace=wrap;html=1;shadow=0;glass=0;sketch=0;fontSize=14;fontColor=#ffffff;strokeColor=#001DBC;strokeWidth=1;fillColor=#0050ef;" vertex="1" parent="1">
          <mxGeometry x="780" y="720" width="60" height="30" as="geometry" />
        </mxCell>
        <mxCell id="Hnz1IxxwzGG9viHPexm9-117" style="edgeStyle=orthogonalEdgeStyle;rounded=0;orthogonalLoop=1;jettySize=auto;html=1;entryX=0.192;entryY=0.981;entryDx=0;entryDy=0;entryPerimeter=0;fontSize=14;fontColor=#000000;" edge="1" parent="1" source="Hnz1IxxwzGG9viHPexm9-116" target="Hnz1IxxwzGG9viHPexm9-82">
          <mxGeometry relative="1" as="geometry" />
        </mxCell>
        <mxCell id="Hnz1IxxwzGG9viHPexm9-116" value="Location" style="rounded=1;whiteSpace=wrap;html=1;shadow=0;glass=0;sketch=0;fontSize=14;fontColor=#ffffff;strokeColor=#001DBC;strokeWidth=1;fillColor=#0050ef;" vertex="1" parent="1">
          <mxGeometry x="130" y="580" width="70" height="30" as="geometry" />
        </mxCell>
        <mxCell id="Hnz1IxxwzGG9viHPexm9-118" style="edgeStyle=orthogonalEdgeStyle;rounded=0;orthogonalLoop=1;jettySize=auto;html=1;exitX=0;exitY=0.5;exitDx=0;exitDy=0;entryX=0.125;entryY=0.375;entryDx=0;entryDy=0;entryPerimeter=0;fontSize=14;fontColor=#000000;" edge="1" parent="1" source="Hnz1IxxwzGG9viHPexm9-76" target="Hnz1IxxwzGG9viHPexm9-76">
          <mxGeometry relative="1" as="geometry" />
        </mxCell>
        <mxCell id="Hnz1IxxwzGG9viHPexm9-119" value="" style="rounded=0;whiteSpace=wrap;html=1;shadow=0;glass=0;sketch=0;fontSize=14;strokeWidth=1;fillColor=none;" vertex="1" parent="1">
          <mxGeometry x="210" y="510" width="120" height="60" as="geometry" />
        </mxCell>
      </root>
    </mxGraphModel>
  </diagram>
</mxfile>
